<?xml version="1.0" encoding="UTF-8"?>
<svg id="_레이어_2" data-name="레이어 2" xmlns="http://www.w3.org/2000/svg" viewBox="0 0 400.5 64.08">
  <defs>
    <style>
      .cls-1 {
        fill: #040000;
        stroke-width: 0px;
      }
    </style>
  </defs>
  <g id="_레이어_1-2" data-name="레이어 1">
    <g>
      <g>
        <polygon class="cls-1" points="154.72 15.07 99.43 15.07 99.43 6.18 156.67 6.18 156.67 0 91.31 0 91.31 6.18 93.26 6.18 93.26 21.25 99.43 21.25 154.72 21.25 154.72 15.07"/>
        <rect class="cls-1" x="85.26" y="28.31" width="77.46" height="6.17"/>
        <path class="cls-1" d="M148.69,40.88h-49.39c-6.18,0-11.21,5.03-11.21,11.21v.14c0,6.18,5.03,11.21,11.21,11.21h49.39c6.18,0,11.21-5.03,11.21-11.21v-.14c0-6.18-5.03-11.21-11.21-11.21ZM153.72,52.24c0,2.78-2.26,5.04-5.04,5.04h-49.39c-2.78,0-5.04-2.26-5.04-5.04v-.14c0-2.78,2.26-5.04,5.04-5.04h49.39c2.78,0,5.04,2.26,5.04,5.04v.14Z"/>
      </g>
      <g>
        <polygon class="cls-1" points="400.5 20.46 390.68 20.46 390.68 13.46 400.5 13.46 400.5 7.28 390.68 7.28 390.68 0 384.51 0 384.51 34.49 390.68 34.49 390.68 26.64 400.5 26.64 400.5 20.46"/>
        <rect class="cls-1" x="333.05" y="0" width="33.22" height="5.31"/>
        <path class="cls-1" d="M386.39,40.87h-49.24c-6.22,0-11.29,5.06-11.29,11.29s5.06,11.29,11.29,11.29h49.24c6.22,0,11.29-5.06,11.29-11.29s-5.06-11.29-11.29-11.29ZM386.39,57.27h-49.24c-2.82,0-5.11-2.29-5.11-5.11s2.29-5.11,5.11-5.11h49.24c2.82,0,5.11,2.29,5.11,5.11s-2.29,5.11-5.11,5.11Z"/>
        <path class="cls-1" d="M342.15,34.53h15.01c6.88,0,12.48-5.6,12.48-12.48,0-1.85-.41-3.66-1.23-5.36l-.61-1.27h8.47v-6.17h-53.24v6.17h8.47l-.61,1.27c-.82,1.7-1.23,3.51-1.23,5.36,0,6.88,5.6,12.48,12.48,12.48ZM342.15,15.75h15.01c3.48,0,6.31,2.83,6.31,6.31s-2.83,6.31-6.31,6.31h-15.01c-3.48,0-6.31-2.83-6.31-6.31s2.83-6.31,6.31-6.31Z"/>
      </g>
      <g>
        <polygon class="cls-1" points="235.3 34.49 235.3 .33 229.13 .33 229.13 11.39 215.39 11.39 215.39 17.56 229.13 17.56 229.13 34.49 235.3 34.49"/>
        <path class="cls-1" d="M169.24,17.33c.02,4.59,1.84,8.9,5.12,12.14,3.26,3.22,7.55,5,12.11,5h2.61c9.5-.06,17.19-7.83,17.14-17.33-.05-9.45-7.78-17.14-17.23-17.14h-2.6c-4.59.04-8.9,1.85-12.14,5.13-3.25,3.28-5.02,7.61-5,12.2ZM178.63,9.48c2.09-2.11,4.85-3.27,7.79-3.29h2.52c6.12-.01,11.08,4.92,11.11,10.99.03,6.09-4.9,11.08-11,11.11h-2.52c-6.12.01-11.08-4.92-11.11-10.99-.01-2.94,1.13-5.71,3.21-7.82Z"/>
        <path class="cls-1" d="M235.3,51.45v-10.56h-61.48s0,5.89,0,5.89h55.31v4.67c0,4.7-1.65,8.35-2.57,10.02l5.48,1.83c1.18-1.53,3.27-5.18,3.27-11.85Z"/>
      </g>
      <g>
        <path class="cls-1" d="M275.11,5.9v2.89c0,4.7-1.65,8.35-2.57,10.02l5.48,1.83c1.18-1.53,3.27-5.18,3.27-11.85v-2.89h19.64v2.89c0,4.7-1.65,8.35-2.57,10.02l5.48,1.83c1.18-1.53,3.27-5.18,3.27-11.85V0h-38s-4.89,0-4.89,0h-10.36v5.89h21.25Z"/>
        <polygon class="cls-1" points="312.13 28.29 312.13 28.29 283.62 28.29 283.62 23.39 277.45 23.39 277.45 28.29 250.65 28.29 250.65 28.29 242.66 28.29 242.66 34.47 250.65 34.47 312.13 34.47 320.12 34.47 320.12 28.29 312.13 28.29"/>
        <rect class="cls-1" x="264.78" y="38.08" width="33.22" height="5.31"/>
        <path class="cls-1" d="M251.66,51.71h21.93c-3.21,3.1-9.34,4.97-13.33,4.99h-8.54s-.05,6.59-.05,6.59h8.62c7.24-.05,17.57-4.95,20.92-11.59h.38c3.35,6.64,13.68,11.54,20.92,11.58h8.62s-.05-6.57-.05-6.57h-8.54c-3.99-.03-10.12-1.91-13.33-5h21.93v-6.17h-59.46v6.17Z"/>
      </g>
      <path class="cls-1" d="M71.89,35.71c-.38,0-.78,0-1.18,0,1.38-2.16,2.2-4.72,2.2-7.47,0-7.67-6.22-13.88-13.88-13.88-2.08,0-4.05.47-5.82,1.29-2.56-6.33-8.76-10.79-16-10.79s-13.44,4.47-16,10.79c-1.77-.82-3.74-1.29-5.82-1.29-7.67,0-13.88,6.22-13.88,13.88,0,2.75.81,5.31,2.2,7.47-.4,0-.8,0-1.18,0-2.34,0-3.39,2.9-1.62,4.44,12.36,10.76,15.75,23.93,36.31,23.93s23.96-13.17,36.31-23.93c1.77-1.54.72-4.44-1.62-4.44ZM27.48,34.15c-1.87,0-3.38-1.52-3.38-3.38s1.52-3.38,3.38-3.38,3.38,1.52,3.38,3.38-1.52,3.38-3.38,3.38ZM37.2,30.73c-1.87,0-3.38-1.52-3.38-3.38s1.52-3.38,3.38-3.38,3.38,1.52,3.38,3.38-1.52,3.38-3.38,3.38ZM46.92,34.15c-1.87,0-3.38-1.52-3.38-3.38s1.52-3.38,3.38-3.38,3.38,1.52,3.38,3.38-1.52,3.38-3.38,3.38Z"/>
    </g>
  </g>
</svg>